<svg width="30" height="30" viewBox="0 0 30 30" fill="none" xmlns="http://www.w3.org/2000/svg">
<path d="M6.83709 15.6629C6.47097 15.2968 6.47097 14.7032 6.83709 14.3371L9.33709 11.8371C9.70321 11.471 10.2968 11.471 10.6629 11.8371C11.029 12.2032 11.029 12.7968 10.6629 13.1629L9.76333 14.0625L18.75 14.0625C19.2678 14.0625 19.6875 14.4822 19.6875 15C19.6875 15.5178 19.2678 15.9375 18.75 15.9375L9.76333 15.9375L10.6629 16.8371C11.029 17.2032 11.029 17.7968 10.6629 18.1629C10.2968 18.529 9.70321 18.529 9.33709 18.1629L6.83709 15.6629Z" fill="white"/>
<path fill-rule="evenodd" clip-rule="evenodd" d="M17.4317 1.5625H18.8189C20.5283 1.56248 21.9063 1.56246 22.99 1.70816C24.1151 1.85943 25.0624 2.18304 25.8148 2.93544C26.5672 3.68783 26.8908 4.63518 27.0421 5.76031C27.1878 6.84402 27.1878 8.22193 27.1878 9.93142V20.0686C27.1878 21.7781 27.1878 23.156 27.0421 24.2397C26.8908 25.3648 26.5672 26.3122 25.8148 27.0646C25.0624 27.817 24.1151 28.1406 22.99 28.2918C21.9062 28.4375 20.5283 28.4375 18.8189 28.4375H17.4317C15.7222 28.4375 14.3443 28.4375 13.2606 28.2918C12.1354 28.1406 11.1881 27.817 10.4357 27.0646C9.93704 26.5659 9.62585 25.9805 9.42881 25.3123C8.2396 25.3107 7.24883 25.2977 6.44611 25.1897C5.49117 25.0613 4.66325 24.7835 4.00238 24.1226C3.34152 23.4618 3.06366 22.6338 2.93527 21.6789C2.81245 20.7653 2.81247 19.6082 2.8125 18.1922V11.8079C2.81247 10.3919 2.81245 9.23468 2.93527 8.32111C3.06366 7.36617 3.34152 6.53825 4.00238 5.87738C4.66325 5.21651 5.49117 4.93866 6.44611 4.81027C7.24883 4.70235 8.2396 4.68927 9.42881 4.68771C9.62585 4.01952 9.93704 3.43411 10.4357 2.93544C11.1881 2.18304 12.1354 1.85943 13.2606 1.70816C14.3443 1.56246 15.7222 1.56248 17.4317 1.5625ZM9.06496 21.2552C9.06944 22.0609 9.08274 22.7866 9.12856 23.4364C8.08545 23.4323 7.31 23.414 6.69595 23.3315C5.94893 23.231 5.58263 23.0512 5.32821 22.7968C5.07378 22.5424 4.89399 22.1761 4.79355 21.4291C4.68949 20.6551 4.6875 19.6246 4.6875 18.125V11.875C4.6875 10.3754 4.68949 9.34494 4.79355 8.57095C4.89399 7.82392 5.07378 7.45763 5.32821 7.20321C5.58263 6.94878 5.94893 6.76899 6.69595 6.66855C7.31 6.586 8.08545 6.56768 9.12856 6.56364C9.08274 7.21342 9.06944 7.93911 9.06496 8.74478C9.06208 9.26254 9.47947 9.6846 9.99723 9.68749C10.515 9.69037 10.937 9.27298 10.9399 8.75522C10.9475 7.38835 10.983 6.41949 11.1181 5.68418C11.2482 4.97567 11.4572 4.56558 11.7615 4.26126C12.1075 3.91531 12.5932 3.68975 13.5104 3.56644C14.4546 3.43949 15.706 3.4375 17.5003 3.4375H18.7503C20.5445 3.4375 21.7959 3.43949 22.7401 3.56644C23.6573 3.68975 24.1431 3.91531 24.489 4.26126C24.835 4.60722 25.0605 5.09293 25.1838 6.01015C25.3108 6.95434 25.3128 8.20573 25.3128 10V20C25.3128 21.7943 25.3108 23.0457 25.1838 23.9899C25.0605 24.9071 24.835 25.3928 24.489 25.7387C24.1431 26.0847 23.6573 26.3103 22.7401 26.4336C21.7959 26.5605 20.5445 26.5625 18.7503 26.5625H17.5003C15.706 26.5625 14.4546 26.5605 13.5104 26.4336C12.5932 26.3103 12.1075 26.0847 11.7615 25.7387C11.4572 25.4344 11.2482 25.0243 11.1181 24.3158C10.983 23.5805 10.9475 22.6117 10.9399 21.2448C10.937 20.727 10.515 20.3096 9.99723 20.3125C9.47947 20.3154 9.06208 20.7375 9.06496 21.2552Z" fill="white"/>
</svg>
