<svg width="27" height="27" viewBox="0 0 27 27" fill="none" xmlns="http://www.w3.org/2000/svg">
<path fill-rule="evenodd" clip-rule="evenodd" d="M13.5 1.40625C12.8197 1.40625 12.1933 1.57532 11.5074 1.85897C10.8451 2.13287 10.0759 2.53655 9.11801 3.03922L6.79206 4.25982C5.61647 4.87673 4.67568 5.37043 3.94928 5.85553C3.19673 6.35809 2.61711 6.88726 2.19501 7.60408C1.77433 8.31849 1.58508 9.09207 1.49432 10.0133C1.40623 10.9075 1.40624 12.0073 1.40625 13.3904V13.6096C1.40624 14.9927 1.40623 16.0925 1.49432 16.9867C1.58508 17.9079 1.77433 18.6815 2.19501 19.3959C2.61711 20.1127 3.19673 20.6419 3.94928 21.1445C4.67568 21.6296 5.61646 22.1233 6.79204 22.7402L9.11791 23.9607C10.0758 24.4634 10.8451 24.8671 11.5074 25.141C12.1933 25.4247 12.8197 25.5938 13.5 25.5938C14.1803 25.5938 14.8067 25.4247 15.4926 25.141C16.1549 24.8671 16.9241 24.4635 17.882 23.9608L20.2079 22.7402C21.3835 22.1233 22.3243 21.6296 23.0507 21.1445C23.8033 20.6419 24.3829 20.1127 24.805 19.3959C25.2257 18.6815 25.4149 17.9079 25.5057 16.9867C25.5938 16.0925 25.5938 14.9927 25.5938 13.6096V13.3904C25.5938 12.0073 25.5938 10.9075 25.5057 10.0133C25.4149 9.09207 25.2257 8.31849 24.805 7.60408C24.3829 6.88726 23.8033 6.35809 23.0507 5.85553C22.3243 5.37042 21.3835 4.87673 20.2079 4.25981L17.882 3.03923C16.9242 2.53656 16.1549 2.13287 15.4926 1.85897C14.8067 1.57532 14.1803 1.40625 13.5 1.40625ZM9.86715 4.55183C10.8681 4.02657 11.5695 3.6594 12.1523 3.41838C12.7195 3.1838 13.118 3.09375 13.5 3.09375C13.882 3.09375 14.2805 3.1838 14.8477 3.41838C15.4305 3.6594 16.1319 4.02657 17.1329 4.55184L19.3829 5.73258C20.6088 6.37591 21.47 6.82911 22.1135 7.25887C22.431 7.47088 22.6805 7.66775 22.8819 7.86571L19.1349 9.73922L9.57257 4.70643L9.86715 4.55183ZM7.81275 5.62994L7.61715 5.73258C6.39124 6.37591 5.52997 6.82911 4.88646 7.25886C4.56898 7.47088 4.3195 7.66776 4.1181 7.86571L13.5 12.5567L17.2768 10.6682L8.04452 5.80915C7.95483 5.76194 7.87715 5.70086 7.81275 5.62994ZM3.30489 9.34579C3.24808 9.58641 3.20513 9.85964 3.1737 10.1788C3.0947 10.9807 3.09375 11.9975 3.09375 13.4342V13.5658C3.09375 15.0025 3.0947 16.0193 3.1737 16.8212C3.25096 17.6056 3.39774 18.1127 3.64913 18.5397C3.89911 18.9642 4.26068 19.3232 4.88646 19.7411C5.52997 20.1709 6.39124 20.6241 7.61715 21.2674L9.86715 22.4482C10.8681 22.9734 11.5695 23.3406 12.1523 23.5816C12.3363 23.6577 12.5026 23.7186 12.6562 23.7661V14.0215L3.30489 9.34579ZM14.3437 23.7661C14.4974 23.7186 14.6637 23.6577 14.8477 23.5816C15.4305 23.3406 16.1319 22.9734 17.1329 22.4482L19.3829 21.2674C20.6088 20.6241 21.47 20.1709 22.1135 19.7411C22.7393 19.3232 23.1009 18.9642 23.3509 18.5397C23.6023 18.1127 23.749 17.6056 23.8263 16.8212C23.9053 16.0193 23.9062 15.0025 23.9062 13.5658V13.4342C23.9062 11.9975 23.9053 10.9807 23.8263 10.1788C23.7949 9.85964 23.7519 9.5864 23.6951 9.34578L19.9687 11.209V14.625C19.9687 15.091 19.591 15.4687 19.125 15.4687C18.659 15.4687 18.2812 15.091 18.2812 14.625V12.0527L14.3437 14.0215V23.7661Z" fill="black"/>
</svg>
