<svg width="27" height="27" viewBox="0 0 27 27" fill="none" xmlns="http://www.w3.org/2000/svg">
<path fill-rule="evenodd" clip-rule="evenodd" d="M9.05436 2.7993C9.37231 3.13996 9.3539 3.67388 9.01323 3.99183L4.19181 8.49183C4.02067 8.65155 3.79088 8.733 3.55736 8.71671C3.32384 8.70041 3.10759 8.58783 2.9603 8.40589L1.59423 6.71839C1.30103 6.3562 1.35695 5.8249 1.71914 5.5317C2.08133 5.2385 2.61263 5.29443 2.90583 5.65662L3.70226 6.64044L7.86182 2.75818C8.20249 2.44022 8.7364 2.45863 9.05436 2.7993ZM12.6563 5.625C12.6563 5.15901 13.034 4.78125 13.5 4.78125H24.75C25.216 4.78125 25.5938 5.15901 25.5938 5.625C25.5938 6.09099 25.216 6.46875 24.75 6.46875H13.5C13.034 6.46875 12.6563 6.09099 12.6563 5.625ZM9.05436 10.6743C9.37231 11.015 9.3539 11.5489 9.01323 11.8668L4.19181 16.3668C4.02067 16.5266 3.79088 16.608 3.55736 16.5917C3.32384 16.5754 3.10759 16.4628 2.9603 16.2809L1.59423 14.5934C1.30103 14.2312 1.35695 13.6999 1.71914 13.4067C2.08133 13.1135 2.61263 13.1694 2.90583 13.5316L3.70226 14.5154L7.86182 10.6332C8.20249 10.3152 8.7364 10.3336 9.05436 10.6743ZM12.6563 13.5C12.6563 13.034 13.034 12.6563 13.5 12.6563H24.75C25.216 12.6563 25.5938 13.034 25.5938 13.5C25.5938 13.966 25.216 14.3438 24.75 14.3438H13.5C13.034 14.3438 12.6563 13.966 12.6563 13.5ZM9.05436 18.5493C9.37231 18.89 9.3539 19.4239 9.01323 19.7418L4.19181 24.2418C4.02067 24.4016 3.79088 24.483 3.55736 24.4667C3.32384 24.4504 3.10759 24.3378 2.9603 24.1559L1.59423 22.4684C1.30103 22.1062 1.35695 21.5749 1.71914 21.2817C2.08133 20.9885 2.61263 21.0444 2.90583 21.4066L3.70225 22.3904L7.86182 18.5082C8.20249 18.1902 8.7364 18.2086 9.05436 18.5493ZM12.6563 21.375C12.6563 20.909 13.034 20.5313 13.5 20.5313H24.75C25.216 20.5313 25.5938 20.909 25.5938 21.375C25.5938 21.841 25.216 22.2188 24.75 22.2188H13.5C13.034 22.2188 12.6563 21.841 12.6563 21.375Z" fill="black"/>
</svg>
