<svg width="30" height="30" viewBox="0 0 30 30" fill="none" xmlns="http://www.w3.org/2000/svg">
<path d="M19.4129 15.6629C19.779 15.2968 19.779 14.7032 19.4129 14.3371L16.2879 11.2121C15.9218 10.846 15.3282 10.846 14.9621 11.2121C14.596 11.5782 14.596 12.1718 14.9621 12.5379L16.4867 14.0625H7.5C6.98224 14.0625 6.5625 14.4822 6.5625 15C6.5625 15.5178 6.98224 15.9375 7.5 15.9375H16.4867L14.9621 17.4621C14.596 17.8282 14.596 18.4218 14.9621 18.7879C15.3282 19.154 15.9218 19.154 16.2879 18.7879L19.4129 15.6629Z" fill="white"/>
<path fill-rule="evenodd" clip-rule="evenodd" d="M17.4314 1.5625H18.8186C20.5281 1.56248 21.906 1.56246 22.9897 1.70816C24.1148 1.85943 25.0622 2.18304 25.8146 2.93544C26.567 3.68783 26.8906 4.63518 27.0419 5.76031C27.1875 6.84402 27.1875 8.22193 27.1875 9.93142V20.0686C27.1875 21.7781 27.1875 23.156 27.0419 24.2397C26.8906 25.3648 26.567 26.3122 25.8146 27.0646C25.0622 27.817 24.1148 28.1406 22.9897 28.2918C21.906 28.4375 20.5281 28.4375 18.8186 28.4375H17.4314C15.7219 28.4375 14.344 28.4375 13.2603 28.2918C12.1352 28.1406 11.1878 27.817 10.4354 27.0646C9.93568 26.5648 9.6251 25.979 9.42854 25.3123C8.23945 25.3107 7.24877 25.2976 6.44611 25.1897C5.49117 25.0613 4.66325 24.7835 4.00238 24.1226C3.34152 23.4618 3.06366 22.6338 2.93527 21.6789C2.81245 20.7653 2.81247 19.6082 2.8125 18.1922V11.8079C2.81247 10.3919 2.81245 9.23468 2.93527 8.32111C3.06366 7.36617 3.34152 6.53825 4.00238 5.87738C4.66325 5.21651 5.49117 4.93866 6.44611 4.81027C7.24877 4.70236 8.23945 4.68928 9.42854 4.68771C9.6251 4.02096 9.93568 3.4352 10.4354 2.93544C11.1878 2.18304 12.1352 1.85943 13.2603 1.70816C14.344 1.56246 15.7219 1.56248 17.4314 1.5625ZM9.0625 20.0686C9.06248 21.381 9.06247 22.4979 9.12838 23.4364C8.08536 23.4323 7.30997 23.414 6.69595 23.3315C5.94893 23.231 5.58263 23.0512 5.32821 22.7968C5.07378 22.5424 4.89399 22.1761 4.79355 21.4291C4.68949 20.6551 4.6875 19.6246 4.6875 18.125V11.875C4.6875 10.3754 4.68949 9.34494 4.79355 8.57095C4.89399 7.82392 5.07378 7.45763 5.32821 7.20321C5.58263 6.94878 5.94893 6.76899 6.69595 6.66855C7.30997 6.586 8.08536 6.56769 9.12838 6.56364C9.06247 7.50208 9.06248 8.61903 9.0625 9.9314L9.0625 10C9.0625 10.5178 9.48224 10.9375 10 10.9375C10.5178 10.9375 10.9375 10.5178 10.9375 10C10.9375 8.20573 10.9395 6.95434 11.0664 6.01015C11.1898 5.09293 11.4153 4.60722 11.7613 4.26126C12.1072 3.91531 12.5929 3.68975 13.5102 3.56644C14.4543 3.43949 15.7057 3.4375 17.5 3.4375H18.75C20.5443 3.4375 21.7957 3.43949 22.7399 3.56644C23.6571 3.68975 24.1428 3.91531 24.4887 4.26126C24.8347 4.60722 25.0603 5.09293 25.1836 6.01015C25.3105 6.95434 25.3125 8.20573 25.3125 10V20C25.3125 21.7943 25.3105 23.0457 25.1836 23.9899C25.0603 24.9071 24.8347 25.3928 24.4887 25.7387C24.1428 26.0847 23.6571 26.3103 22.7399 26.4336C21.7957 26.5605 20.5443 26.5625 18.75 26.5625H17.5C15.7057 26.5625 14.4543 26.5605 13.5102 26.4336C12.5929 26.3103 12.1072 26.0847 11.7613 25.7387C11.4153 25.3928 11.1898 24.9071 11.0664 23.9899C10.9395 23.0457 10.9375 21.7943 10.9375 20C10.9375 19.4822 10.5178 19.0625 10 19.0625C9.48224 19.0625 9.0625 19.4822 9.0625 20L9.0625 20.0686Z" fill="white"/>
</svg>
