<svg width="27" height="27" viewBox="0 0 27 27" fill="none" xmlns="http://www.w3.org/2000/svg">
<path fill-rule="evenodd" clip-rule="evenodd" d="M18.5368 4.46225C18.871 4.17351 19.4051 4.1802 19.73 4.47719L25.355 9.62005C25.6733 9.91114 25.6733 10.3746 25.355 10.6657L19.73 15.8085C19.4051 16.1055 18.871 16.1122 18.5368 15.8235C18.2027 15.5347 18.1952 15.0599 18.52 14.7629L22.7529 10.8929H9.28126C5.88624 10.8929 3.09375 13.4152 3.09375 16.5714C3.09375 19.7277 5.88624 22.25 9.28125 22.25H19.125C19.591 22.25 19.9687 22.5858 19.9687 23C19.9687 23.4142 19.591 23.75 19.125 23.75H9.28125C4.90976 23.75 1.40625 20.516 1.40625 16.5714C1.40626 12.6269 4.90977 9.39286 9.28126 9.39286H22.7529L18.52 5.52281C18.1952 5.22582 18.2027 4.75099 18.5368 4.46225Z" fill="black"/>
</svg>
