<svg width="27" height="27" viewBox="0 0 27 27" fill="none" xmlns="http://www.w3.org/2000/svg">
<path fill-rule="evenodd" clip-rule="evenodd" d="M7.875 1.96875C8.34099 1.96875 8.71875 2.34651 8.71875 2.8125V3.67056C9.46353 3.65623 10.2841 3.65624 11.1865 3.65625H15.8135C16.7159 3.65624 17.5365 3.65623 18.2813 3.67056V2.8125C18.2813 2.34651 18.659 1.96875 19.125 1.96875C19.591 1.96875 19.9688 2.34651 19.9688 2.8125V3.74297C20.2612 3.76527 20.5381 3.7933 20.8002 3.82853C22.1191 4.00586 23.1867 4.37949 24.0286 5.2214C24.8705 6.06331 25.2441 7.13087 25.4215 8.44985C25.4781 8.87138 25.5162 9.33141 25.5417 9.83258C25.5754 9.92369 25.5938 10.0222 25.5938 10.125C25.5938 10.203 25.5832 10.2785 25.5634 10.3502C25.5938 11.2524 25.5938 12.2768 25.5938 13.4365V15.8135C25.5938 17.8809 25.5938 19.5185 25.4215 20.8001C25.2441 22.1191 24.8705 23.1867 24.0286 24.0286C23.1867 24.8705 22.1191 25.2441 20.8002 25.4215C19.5185 25.5938 17.8809 25.5938 15.8135 25.5938H11.1865C9.11906 25.5938 7.48147 25.5938 6.19985 25.4215C4.88087 25.2441 3.81331 24.8705 2.9714 24.0286C2.12949 23.1867 1.75586 22.1191 1.57853 20.8001C1.40622 19.5185 1.40623 17.8809 1.40625 15.8135V13.4365C1.40624 12.2768 1.40623 11.2524 1.43664 10.3502C1.41683 10.2785 1.40625 10.203 1.40625 10.125C1.40625 10.0222 1.42464 9.92368 1.4583 9.83257C1.48382 9.3314 1.52185 8.87137 1.57853 8.44985C1.75586 7.13087 2.12949 6.06331 2.9714 5.2214C3.81331 4.37949 4.88088 4.00586 6.19985 3.82853C6.46189 3.7933 6.73881 3.76527 7.03125 3.74297V2.8125C7.03125 2.34651 7.40901 1.96875 7.875 1.96875ZM3.10847 10.9688C3.09411 11.7031 3.09375 12.5392 3.09375 13.5V15.75C3.09375 17.8952 3.09554 19.4192 3.25098 20.5753C3.40315 21.7071 3.68853 22.3592 4.16464 22.8354C4.64075 23.3115 5.29285 23.5968 6.42471 23.749C7.58083 23.9045 9.10483 23.9062 11.25 23.9062H15.75C17.8952 23.9062 19.4192 23.9045 20.5753 23.749C21.7071 23.5968 22.3592 23.3115 22.8354 22.8354C23.3115 22.3592 23.5968 21.7071 23.749 20.5753C23.9045 19.4192 23.9062 17.8952 23.9062 15.75V13.5C23.9062 12.5392 23.9059 11.7031 23.8915 10.9688H3.10847ZM23.8144 9.28125H3.18564C3.20366 9.06819 3.22521 8.86639 3.25098 8.6747C3.40315 7.54285 3.68853 6.89075 4.16464 6.41464C4.64075 5.93853 5.29285 5.65315 6.42471 5.50098C7.58083 5.34554 9.10483 5.34375 11.25 5.34375H15.75C17.8952 5.34375 19.4192 5.34554 20.5753 5.50098C21.7071 5.65315 22.3592 5.93853 22.8354 6.41464C23.3115 6.89075 23.5968 7.54285 23.749 8.67471C23.7748 8.86639 23.7963 9.06819 23.8144 9.28125ZM18.5625 17.7188C18.0965 17.7188 17.7188 18.0965 17.7188 18.5625C17.7188 19.0285 18.0965 19.4062 18.5625 19.4062C19.0285 19.4062 19.4062 19.0285 19.4062 18.5625C19.4062 18.0965 19.0285 17.7188 18.5625 17.7188ZM16.0313 18.5625C16.0313 17.1645 17.1645 16.0312 18.5625 16.0312C19.9605 16.0312 21.0938 17.1645 21.0938 18.5625C21.0938 19.9605 19.9605 21.0938 18.5625 21.0938C17.1645 21.0938 16.0313 19.9605 16.0313 18.5625Z" fill="black"/>
</svg>
