<svg width="27" height="27" viewBox="0 0 27 27" fill="none" xmlns="http://www.w3.org/2000/svg">
<path d="M14.0284 5.02838C14.3579 4.69887 14.8921 4.69887 15.2216 5.02838L16.9091 6.71588C17.2386 7.04538 17.2386 7.57962 16.9091 7.90912C16.5796 8.23863 16.0454 8.23863 15.7159 7.90912L14.0284 6.22162C13.6989 5.89212 13.6989 5.35788 14.0284 5.02838Z" fill="black"/>
<path fill-rule="evenodd" clip-rule="evenodd" d="M7.94489 3.44489C10.6631 0.726703 15.0701 0.726703 17.7883 3.44489L23.5551 9.21168C26.2733 11.9299 26.2733 16.3369 23.5551 19.0551C21.5467 21.0635 18.6162 21.588 16.1263 20.6284C15.0568 23.5268 12.2705 25.5936 9 25.5936C4.80609 25.5936 1.40625 22.1938 1.40625 17.9999C1.40625 14.7293 3.47317 11.9431 6.37155 10.8736C5.41205 8.38369 5.9365 5.45329 7.94489 3.44489ZM16.5951 4.63813C14.5359 2.57896 11.1973 2.57896 9.13813 4.63813C7.07896 6.69731 7.07896 10.0359 9.13813 12.0951L11.6728 14.6298C11.9166 14.5489 12.2587 14.4193 12.6734 14.2194C13.5797 13.7827 14.8358 13.0093 16.1723 11.6728C17.5089 10.3362 18.2824 9.07997 18.7192 8.17354C18.9191 7.75877 19.0489 7.41658 19.1297 7.1728L16.5951 4.63813ZM20.435 8.47803C20.3767 8.61303 20.3118 8.75603 20.2394 8.9062C19.728 9.96717 18.8484 11.3832 17.3656 12.866C15.8828 14.3489 14.4668 15.2284 13.406 15.7396C13.2559 15.8119 13.113 15.8768 12.9781 15.935L14.9049 17.8619C16.9641 19.921 20.3027 19.921 22.3619 17.8619C24.421 15.8027 24.421 12.4641 22.3619 10.4049L20.435 8.47803ZM7.17825 12.3797C4.80767 13.1474 3.09375 15.3743 3.09375 17.9999C3.09375 21.2618 5.73807 23.9061 9 23.9061C11.6256 23.9061 13.8525 22.1922 14.6202 19.8217C14.3013 19.5961 13.9972 19.3406 13.7117 19.0551L7.94489 13.2883C7.65935 13.0028 7.4038 12.6986 7.17825 12.3797Z" fill="black"/>
</svg>
