<svg width="27" height="27" viewBox="0 0 27 27" fill="none" xmlns="http://www.w3.org/2000/svg">
<path fill-rule="evenodd" clip-rule="evenodd" d="M13.5002 1.40625C8.68493 1.40625 4.78142 5.30977 4.78142 10.125V10.9171C4.78142 11.7012 4.54934 12.4676 4.11444 13.12L2.82226 15.0583C1.32252 17.3079 2.46744 20.3656 5.07586 21.077C5.92592 21.3089 6.78317 21.505 7.64537 21.6653L7.64751 21.6711C8.51263 23.9795 10.8249 25.5938 13.5001 25.5938C16.1753 25.5938 18.4876 23.9795 19.3527 21.6711L19.3548 21.6654C20.2171 21.505 21.0744 21.3089 21.9245 21.077C24.5329 20.3656 25.6778 17.3079 24.1781 15.0583L22.8859 13.12C22.451 12.4676 22.2189 11.7012 22.2189 10.9171V10.125C22.2189 5.30977 18.3154 1.40625 13.5002 1.40625ZM17.2986 21.9791C14.7753 22.2806 12.2249 22.2806 9.70155 21.9791C10.5014 23.1283 11.8925 23.9062 13.5001 23.9062C15.1077 23.9062 16.4988 23.1283 17.2986 21.9791ZM6.46892 10.125C6.46892 6.24175 9.61691 3.09375 13.5002 3.09375C17.3834 3.09375 20.5314 6.24175 20.5314 10.125V10.9171C20.5314 12.0343 20.8621 13.1265 21.4818 14.0561L22.774 15.9943C23.6348 17.2856 22.9776 19.0407 21.4805 19.449C16.2557 20.8739 10.7447 20.8739 5.51987 19.449C4.02269 19.0407 3.36552 17.2856 4.22634 15.9943L5.51852 14.0561C6.13823 13.1265 6.46892 12.0343 6.46892 10.9171V10.125Z" fill="black"/>
</svg>
