<svg width="40" height="40" viewBox="0 0 40 40" fill="none" xmlns="http://www.w3.org/2000/svg">
<path fill-rule="evenodd" clip-rule="evenodd" d="M20.0002 2.08331C12.8666 2.08331 7.08356 7.8663 7.08356 15V16.1735C7.08356 17.335 6.73975 18.4706 6.09544 19.437L4.1811 22.3085C1.95928 25.6413 3.65546 30.1713 7.51977 31.2252C8.77913 31.5687 10.0491 31.8592 11.3265 32.0968L11.3296 32.1053C12.6113 35.5251 16.0368 37.9166 20.0001 37.9166C23.9634 37.9166 27.389 35.5251 28.6706 32.1053L28.6738 32.0968C29.9512 31.8592 31.2213 31.5687 32.4807 31.2252C36.345 30.1713 38.0412 25.6413 35.8194 22.3085L33.905 19.437C33.2607 18.4706 32.9169 17.335 32.9169 16.1735V15C32.9169 7.8663 27.1339 2.08331 20.0002 2.08331ZM25.6276 32.5616C21.8893 33.0082 18.1109 33.0082 14.3726 32.5616C15.5576 34.2641 17.6185 35.4166 20.0001 35.4166C22.3817 35.4166 24.4427 34.2641 25.6276 32.5616ZM9.58356 15C9.58356 9.24701 14.2473 4.58331 20.0002 4.58331C25.7532 4.58331 30.4169 9.24701 30.4169 15V16.1735C30.4169 17.8286 30.9068 19.4466 31.8249 20.8238L33.7392 23.6953C35.0145 25.6082 34.0409 28.2084 31.8229 28.8133C24.0825 30.9243 15.918 30.9243 8.17757 28.8133C5.95952 28.2084 4.98594 25.6082 6.26123 23.6953L8.17557 20.8238C9.09365 19.4466 9.58356 17.8286 9.58356 16.1735V15Z" fill="#B4B4B4"/>
</svg>
