<svg width="24" height="24" viewBox="0 0 24 24" fill="none" xmlns="http://www.w3.org/2000/svg">
<path fill-rule="evenodd" clip-rule="evenodd" d="M2.50244 10.5358C2.50244 6.09826 6.09932 2.50107 10.5361 2.50107C14.9729 2.50107 18.5697 6.09826 18.5697 10.5358C18.5697 14.9734 14.9729 18.5706 10.5361 18.5706C6.09932 18.5706 2.50244 14.9734 2.50244 10.5358ZM10.5361 1.00107C5.27071 1.00107 1.00244 5.27001 1.00244 10.5358C1.00244 15.8016 5.27071 20.0706 10.5361 20.0706C12.8988 20.0706 15.0607 19.211 16.7263 17.7876L21.7173 22.7792C22.0102 23.0721 22.485 23.0721 22.7779 22.7792C23.0708 22.4863 23.0708 22.0114 22.7779 21.7185L17.7869 16.7269C19.2103 15.061 20.0697 12.8988 20.0697 10.5358C20.0697 5.27001 15.8015 1.00107 10.5361 1.00107Z" fill="#B4B4B4"/>
</svg>
