<svg width="27" height="27" viewBox="0 0 27 27" fill="none" xmlns="http://www.w3.org/2000/svg">
<path fill-rule="evenodd" clip-rule="evenodd" d="M13.5 1.40625C10.5487 1.40625 8.15625 3.79873 8.15625 6.75C8.15625 9.70127 10.5487 12.0938 13.5 12.0938C16.4513 12.0938 18.8438 9.70127 18.8438 6.75C18.8438 3.79873 16.4513 1.40625 13.5 1.40625ZM9.84375 6.75C9.84375 4.73071 11.4807 3.09375 13.5 3.09375C15.5193 3.09375 17.1562 4.73071 17.1562 6.75C17.1562 8.76929 15.5193 10.4062 13.5 10.4062C11.4807 10.4062 9.84375 8.76929 9.84375 6.75Z" fill="black"/>
<path d="M20.25 3.65625C19.784 3.65625 19.4062 4.03401 19.4062 4.5C19.4062 4.96599 19.784 5.34375 20.25 5.34375C21.7985 5.34375 22.7812 6.3627 22.7812 7.3125C22.7812 8.2623 21.7985 9.28125 20.25 9.28125C19.784 9.28125 19.4062 9.65901 19.4062 10.125C19.4062 10.591 19.784 10.9688 20.25 10.9688C22.4294 10.9688 24.4688 9.4693 24.4688 7.3125C24.4688 5.1557 22.4294 3.65625 20.25 3.65625Z" fill="black"/>
<path d="M7.59375 4.5C7.59375 4.03401 7.21599 3.65625 6.75 3.65625C4.57062 3.65625 2.53125 5.1557 2.53125 7.3125C2.53125 9.4693 4.57062 10.9688 6.75 10.9688C7.21599 10.9688 7.59375 10.591 7.59375 10.125C7.59375 9.65901 7.21599 9.28125 6.75 9.28125C5.20145 9.28125 4.21875 8.2623 4.21875 7.3125C4.21875 6.3627 5.20145 5.34375 6.75 5.34375C7.21599 5.34375 7.59375 4.96599 7.59375 4.5Z" fill="black"/>
<path fill-rule="evenodd" clip-rule="evenodd" d="M13.5 13.7812C11.4927 13.7812 9.63726 14.3221 8.259 15.241C6.88664 16.1559 5.90625 17.5125 5.90625 19.125C5.90625 20.7375 6.88664 22.0941 8.259 23.009C9.63726 23.9279 11.4927 24.4688 13.5 24.4688C15.5073 24.4688 17.3627 23.9279 18.741 23.009C20.1134 22.0941 21.0938 20.7375 21.0938 19.125C21.0938 17.5125 20.1134 16.1559 18.741 15.241C17.3627 14.3221 15.5073 13.7812 13.5 13.7812ZM7.59375 19.125C7.59375 18.2522 8.1244 17.3588 9.19506 16.6451C10.2598 15.9352 11.7794 15.4688 13.5 15.4688C15.2206 15.4688 16.7402 15.9352 17.8049 16.6451C18.8756 17.3588 19.4062 18.2522 19.4062 19.125C19.4062 19.9978 18.8756 20.8912 17.8049 21.6049C16.7402 22.3148 15.2206 22.7812 13.5 22.7812C11.7794 22.7812 10.2598 22.3148 9.19506 21.6049C8.1244 20.8912 7.59375 19.9978 7.59375 19.125Z" fill="black"/>
<path d="M21.6758 15.5693C21.7757 15.1141 22.2256 14.826 22.6807 14.9258C23.7629 15.1631 24.738 15.5918 25.4619 16.1842C26.1852 16.776 26.7188 17.5896 26.7188 18.5625C26.7188 19.5354 26.1852 20.349 25.4619 20.9408C24.738 21.5332 23.7629 21.9619 22.6807 22.1992C22.2256 22.299 21.7757 22.0109 21.6758 21.5557C21.576 21.1006 21.8641 20.6507 22.3193 20.5508C23.2107 20.3554 23.9231 20.0196 24.3932 19.6348C24.864 19.2496 25.0312 18.8733 25.0312 18.5625C25.0312 18.2517 24.864 17.8754 24.3932 17.4902C23.9231 17.1054 23.2107 16.7696 22.3193 16.5742C21.8641 16.4743 21.576 16.0244 21.6758 15.5693Z" fill="black"/>
<path d="M4.31927 14.9258C4.77444 14.826 5.22435 15.1141 5.32417 15.5693C5.42398 16.0244 5.13591 16.4743 4.68073 16.5742C3.78932 16.7696 3.07693 17.1054 2.60676 17.4902C2.13596 17.8754 1.96875 18.2517 1.96875 18.5625C1.96875 18.8733 2.13596 19.2496 2.60676 19.6348C3.07693 20.0196 3.78932 20.3554 4.68073 20.5508C5.13591 20.6507 5.42398 21.1006 5.32417 21.5557C5.22435 22.0109 4.77444 22.299 4.31927 22.1992C3.23715 21.9619 2.26204 21.5332 1.53809 20.9408C0.814779 20.349 0.28125 19.5354 0.28125 18.5625C0.28125 17.5896 0.814779 16.776 1.53809 16.1842C2.26204 15.5918 3.23715 15.1631 4.31927 14.9258Z" fill="black"/>
</svg>
