<svg width="27" height="27" viewBox="0 0 27 27" fill="none" xmlns="http://www.w3.org/2000/svg">
<path fill-rule="evenodd" clip-rule="evenodd" d="M12.3115 1.40625H14.6885C16.7559 1.40623 18.3935 1.40622 19.6752 1.57853C20.9941 1.75586 22.0617 2.12949 22.9036 2.9714C23.2331 3.3009 23.2331 3.83514 22.9036 4.16464C22.5741 4.49415 22.0399 4.49415 21.7104 4.16464C21.2342 3.68853 20.5821 3.40315 19.4503 3.25098C18.2942 3.09554 16.7702 3.09375 14.625 3.09375H12.375C10.2298 3.09375 8.70583 3.09554 7.54971 3.25098C6.41785 3.40315 5.76575 3.68853 5.28964 4.16464C4.81353 4.64075 4.52815 5.29285 4.37598 6.42471C4.22054 7.58083 4.21875 9.10483 4.21875 11.25V15.75C4.21875 17.8952 4.22054 19.4192 4.37598 20.5753C4.52815 21.7071 4.81353 22.3592 5.28964 22.8354C5.76575 23.3115 6.41785 23.5968 7.54971 23.749C8.70583 23.9045 10.2298 23.9062 12.375 23.9062H14.625C16.7702 23.9062 18.2942 23.9045 19.4503 23.749C20.5821 23.5968 21.2342 23.3115 21.7104 22.8354C22.4933 22.0524 22.7304 20.8359 22.7716 17.9878C22.7783 17.5219 23.1615 17.1496 23.6274 17.1563C24.0934 17.1631 24.4656 17.5463 24.4589 18.0122C24.4194 20.7431 24.2426 22.6896 22.9036 24.0286C22.0617 24.8705 20.9941 25.2441 19.6752 25.4215C18.3935 25.5938 16.7559 25.5938 14.6885 25.5938H12.3115C10.2441 25.5938 8.60647 25.5938 7.32485 25.4215C6.00587 25.2441 4.93831 24.8705 4.0964 24.0286C3.25449 23.1867 2.88086 22.1191 2.70353 20.8002C2.53122 19.5185 2.53123 17.8809 2.53125 15.8135V11.1865C2.53123 9.11905 2.53122 7.48147 2.70353 6.19985C2.88086 4.88087 3.25449 3.81331 4.0964 2.9714C4.93831 2.12949 6.00588 1.75586 7.32485 1.57853C8.60647 1.40622 10.2441 1.40623 12.3115 1.40625ZM20.3773 7.92625C21.5706 6.73292 23.5054 6.73292 24.6987 7.92625C25.8921 9.11959 25.8921 11.0544 24.6987 12.2477L19.349 17.5974C19.058 17.8886 18.8611 18.0855 18.6405 18.2576C18.3811 18.4599 18.1003 18.6334 17.8033 18.775C17.5508 18.8953 17.2866 18.9833 16.8961 19.1135L14.552 19.8948C14.0344 20.0673 13.4639 19.9326 13.0781 19.5469C12.6924 19.1611 12.5577 18.5906 12.7302 18.073L13.4958 15.7761C13.5011 15.7602 13.5063 15.7445 13.5115 15.729C13.6416 15.3384 13.7297 15.0742 13.85 14.8217C13.9916 14.5247 14.1651 14.2439 14.3674 13.9845C14.5395 13.7639 14.7364 13.567 15.0275 13.276C15.0391 13.2644 15.0508 13.2527 15.0627 13.2408L20.3773 7.92625ZM23.5055 9.1195C22.9712 8.58517 22.1049 8.58517 21.5705 9.1195L21.366 9.324C21.3771 9.36167 21.3899 9.40174 21.4045 9.44384C21.5103 9.74886 21.7111 10.1523 22.0919 10.5331C22.4727 10.9139 22.8761 11.1147 23.1812 11.2205C23.2233 11.2352 23.2633 11.2479 23.301 11.259L23.5055 11.0545C24.0398 10.5201 24.0398 9.65383 23.5055 9.1195ZM22.0122 12.5477C21.6546 12.3599 21.2685 12.0962 20.8987 11.7263C20.5288 11.3565 20.2651 10.9704 20.0773 10.6128L16.256 14.4341C15.9172 14.7728 15.7984 14.8937 15.6981 15.0223C15.5711 15.1851 15.4622 15.3613 15.3734 15.5477C15.3032 15.695 15.2482 15.8553 15.0967 16.3098L14.6464 17.6608L14.9642 17.9786L16.3152 17.5283C16.7697 17.3768 16.93 17.3218 17.0773 17.2516C17.2637 17.1628 17.4399 17.0539 17.6027 16.9269C17.7313 16.8266 17.8522 16.7078 18.1909 16.369L22.0122 12.5477ZM8.15625 10.125C8.15625 9.65901 8.53401 9.28125 9 9.28125H16.3125C16.7785 9.28125 17.1563 9.65901 17.1563 10.125C17.1563 10.591 16.7785 10.9688 16.3125 10.9688H9C8.53401 10.9688 8.15625 10.591 8.15625 10.125ZM8.15625 14.625C8.15625 14.159 8.53401 13.7813 9 13.7813H11.8125C12.2785 13.7813 12.6563 14.159 12.6563 14.625C12.6563 15.091 12.2785 15.4688 11.8125 15.4688H9C8.53401 15.4688 8.15625 15.091 8.15625 14.625ZM8.15625 19.125C8.15625 18.659 8.53401 18.2813 9 18.2813H10.6875C11.1535 18.2813 11.5313 18.659 11.5313 19.125C11.5313 19.591 11.1535 19.9688 10.6875 19.9688H9C8.53401 19.9688 8.15625 19.591 8.15625 19.125Z" fill="black"/>
</svg>
