<svg width="27" height="27" viewBox="0 0 27 27" fill="none" xmlns="http://www.w3.org/2000/svg">
<path fill-rule="evenodd" clip-rule="evenodd" d="M8.17043 3.66801C8.30496 2.39674 9.38056 1.40625 10.6875 1.40625H16.3125C17.6194 1.40625 18.695 2.39674 18.8296 3.66801C19.688 3.68549 20.4303 3.7299 21.0641 3.84631C21.9169 4.00295 22.6426 4.30135 23.2331 4.89189C23.9103 5.56905 24.2015 6.42166 24.3377 7.43428C24.4688 8.40962 24.4688 9.64973 24.4688 11.1883V18.0617C24.4688 19.6003 24.4688 20.8404 24.3377 21.8157C24.2015 22.8283 23.9103 23.681 23.2331 24.3581C22.556 25.0353 21.7033 25.3265 20.6907 25.4627C19.7154 25.5938 18.4753 25.5938 16.9367 25.5938H10.0633C8.52473 25.5938 7.28462 25.5938 6.30928 25.4627C5.29666 25.3265 4.44405 25.0353 3.76689 24.3581C3.08974 23.681 2.79848 22.8283 2.66234 21.8157C2.53121 20.8404 2.53123 19.6003 2.53125 18.0617V11.1883C2.53123 9.64973 2.53121 8.40962 2.66234 7.43428C2.79848 6.42166 3.08974 5.56905 3.76689 4.89189C4.35744 4.30135 5.08315 4.00295 5.9359 3.84631C6.56969 3.7299 7.31196 3.68549 8.17043 3.66801ZM8.17308 5.35597C7.36513 5.37323 6.74253 5.41388 6.24077 5.50605C5.6031 5.62318 5.23402 5.81125 4.96014 6.08514C4.64878 6.39649 4.44578 6.83364 4.33479 7.65914C4.22054 8.5089 4.21875 9.63516 4.21875 11.25V18C4.21875 19.6148 4.22054 20.7411 4.33479 21.5909C4.44578 22.4164 4.64878 22.8535 4.96014 23.1649C5.2715 23.4762 5.70864 23.6792 6.53414 23.7902C7.38391 23.9045 8.51016 23.9062 10.125 23.9062H16.875C18.4898 23.9062 19.6161 23.9045 20.4659 23.7902C21.2914 23.6792 21.7285 23.4762 22.0399 23.1649C22.3512 22.8535 22.5542 22.4164 22.6652 21.5909C22.7795 20.7411 22.7813 19.6148 22.7813 18V11.25C22.7813 9.63516 22.7795 8.5089 22.6652 7.65914C22.5542 6.83364 22.3512 6.39649 22.0399 6.08514C21.766 5.81125 21.3969 5.62318 20.7592 5.50605C20.2575 5.41388 19.6349 5.37323 18.8269 5.35597C18.6815 6.61569 17.6112 7.59375 16.3125 7.59375H10.6875C9.38879 7.59375 8.31853 6.61569 8.17308 5.35597ZM10.6875 3.09375C10.2215 3.09375 9.84375 3.47151 9.84375 3.9375V5.0625C9.84375 5.52849 10.2215 5.90625 10.6875 5.90625H16.3125C16.7785 5.90625 17.1563 5.52849 17.1563 5.0625V3.9375C17.1563 3.47151 16.7785 3.09375 16.3125 3.09375H10.6875ZM7.03125 11.8125C7.03125 11.3465 7.40901 10.9688 7.875 10.9688H8.4375C8.90349 10.9688 9.28125 11.3465 9.28125 11.8125C9.28125 12.2785 8.90349 12.6562 8.4375 12.6562H7.875C7.40901 12.6562 7.03125 12.2785 7.03125 11.8125ZM10.9688 11.8125C10.9688 11.3465 11.3465 10.9688 11.8125 10.9688H19.125C19.591 10.9688 19.9688 11.3465 19.9688 11.8125C19.9688 12.2785 19.591 12.6562 19.125 12.6562H11.8125C11.3465 12.6562 10.9688 12.2785 10.9688 11.8125ZM7.03125 15.75C7.03125 15.284 7.40901 14.9062 7.875 14.9062H8.4375C8.90349 14.9062 9.28125 15.284 9.28125 15.75C9.28125 16.216 8.90349 16.5938 8.4375 16.5938H7.875C7.40901 16.5938 7.03125 16.216 7.03125 15.75ZM10.9688 15.75C10.9688 15.284 11.3465 14.9062 11.8125 14.9062H19.125C19.591 14.9062 19.9688 15.284 19.9688 15.75C19.9688 16.216 19.591 16.5938 19.125 16.5938H11.8125C11.3465 16.5938 10.9688 16.216 10.9688 15.75ZM7.03125 19.6875C7.03125 19.2215 7.40901 18.8438 7.875 18.8438H8.4375C8.90349 18.8438 9.28125 19.2215 9.28125 19.6875C9.28125 20.1535 8.90349 20.5312 8.4375 20.5312H7.875C7.40901 20.5312 7.03125 20.1535 7.03125 19.6875ZM10.9688 19.6875C10.9688 19.2215 11.3465 18.8438 11.8125 18.8438H19.125C19.591 18.8438 19.9688 19.2215 19.9688 19.6875C19.9688 20.1535 19.591 20.5312 19.125 20.5312H11.8125C11.3465 20.5312 10.9688 20.1535 10.9688 19.6875Z" fill="black"/>
</svg>
