<svg width="27" height="27" viewBox="0 0 27 27" fill="none" xmlns="http://www.w3.org/2000/svg">
<path fill-rule="evenodd" clip-rule="evenodd" d="M7.3125 1.96875C4.36123 1.96875 1.96875 4.36123 1.96875 7.3125C1.96875 10.2638 4.36123 12.6562 7.3125 12.6562C10.2638 12.6562 12.6562 10.2638 12.6562 7.3125C12.6562 4.36123 10.2638 1.96875 7.3125 1.96875ZM3.65625 7.3125C3.65625 5.29321 5.29321 3.65625 7.3125 3.65625C9.33179 3.65625 10.9688 5.29321 10.9688 7.3125C10.9688 9.33179 9.33179 10.9688 7.3125 10.9688C5.29321 10.9688 3.65625 9.33179 3.65625 7.3125Z" fill="black"/>
<path fill-rule="evenodd" clip-rule="evenodd" d="M19.6875 14.3438C16.7362 14.3438 14.3438 16.7362 14.3438 19.6875C14.3438 22.6388 16.7362 25.0312 19.6875 25.0312C22.6388 25.0312 25.0312 22.6388 25.0312 19.6875C25.0312 16.7362 22.6388 14.3438 19.6875 14.3438ZM16.0312 19.6875C16.0312 17.6682 17.6682 16.0312 19.6875 16.0312C21.7068 16.0312 23.3438 17.6682 23.3438 19.6875C23.3438 21.7068 21.7068 23.3438 19.6875 23.3438C17.6682 23.3438 16.0312 21.7068 16.0312 19.6875Z" fill="black"/>
<path fill-rule="evenodd" clip-rule="evenodd" d="M14.3438 7.3125C14.3438 4.36123 16.7362 1.96875 19.6875 1.96875C22.6388 1.96875 25.0312 4.36123 25.0312 7.3125C25.0312 10.2638 22.6388 12.6562 19.6875 12.6562C16.7362 12.6562 14.3438 10.2638 14.3438 7.3125ZM19.6875 3.65625C17.6682 3.65625 16.0312 5.29321 16.0312 7.3125C16.0312 9.33179 17.6682 10.9688 19.6875 10.9688C21.7068 10.9688 23.3438 9.33179 23.3438 7.3125C23.3438 5.29321 21.7068 3.65625 19.6875 3.65625Z" fill="black"/>
<path fill-rule="evenodd" clip-rule="evenodd" d="M7.3125 14.3438C4.36123 14.3438 1.96875 16.7362 1.96875 19.6875C1.96875 22.6388 4.36123 25.0312 7.3125 25.0312C10.2638 25.0312 12.6562 22.6388 12.6562 19.6875C12.6562 16.7362 10.2638 14.3438 7.3125 14.3438ZM3.65625 19.6875C3.65625 17.6682 5.29321 16.0312 7.3125 16.0312C9.33179 16.0312 10.9688 17.6682 10.9688 19.6875C10.9688 21.7068 9.33179 23.3438 7.3125 23.3438C5.29321 23.3438 3.65625 21.7068 3.65625 19.6875Z" fill="black"/>
</svg>
